<svg id="Layer_1" xmlns="http://www.w3.org/2000/svg" xmlns:xlink="http://www.w3.org/1999/xlink" width="83" height="83" viewBox="0 0 83 83" enable-background="new 0 0 83 83"><path fill="#778095" d="M73.5.0h-6v1H68h5 .5V0 0zm-10 0h-6v1H58h5 .5V0 0zm-10 0h-6v1H48h5 .5V0 0zm-10 0h-6v1H38h5 .5V0 0zm-10 0h-6v1H28h5 .5V0 0zm-10 0h-6v1H18h5 .5V0 0zm-10 0h-6v1H8h5 .5V0 0zM3.5.0H0v1 0c0 .5.0 1 0 1v.5h1V2 1h2 .5V0 0zM1 6.5H0V7v5 .5h1V12 7 6.5v0zm0 10H0V17v5 .5h1V22v-5-.5.0zm0 10H0V27v5 .5h1V32v-5-.5.0zm0 10H0V37v5 .5h1V42v-5-.5.0zm0 10H0V47v5 .5h1V52v-5-.5.0zm0 10H0V57v5 .5h1V62v-5-.5.0zm0 10H0V67v5 .5h1V72v-5-.5.0zm0 10H0V77v5 .5h1V82v-5-.5.0zM9.5 82H9 4 3.5v1H4h5 .5V82v0zm10 0H19h-5-.5v1H14h5 .5V82v0zm10 0H29h-5-.5v1H24h5 .5V82v0zm10 0H39h-5-.5v1H34h5 .5V82v0zm10 0H49h-5-.5v1H44h5 .5V82v0zm10 0H59h-5-.5v1H54h5 .5V82v0zm10 0H69h-5-.5v1H64h5 .5V82v0zm10 0H79h-5-.5v1H74h5 .5V82v0zM83 76.5h-1V77v5 .5h1v-6 0zm0-10h-1V67v5 .5h1v-6 0zm0-10h-1V57v5 .5h1v-6 0zm0-10h-1V47v5 .5h1v-6 0zm0-10h-1V37v5 .5h1v-6 0zm0-10h-1V27v5 .5h1v-6 0zm0-10h-1V17v5 .5h1v-6 0zm0-10h-1V7v5 .5h1v-6 0zM83 0h-5.5v1H78h4v1 .5h1V0 0z"/><path fill="#778095" d="M33 39.8h17v3.4H33z"/><path fill="#778095" d="M39.8 33h3.4v17H39.8z"/></svg>