<svg id="Layer_1" xmlns="http://www.w3.org/2000/svg" xmlns:xlink="http://www.w3.org/1999/xlink" width="23" height="23" viewBox="0 0 23 23" enable-background="new 0 0 23 23"><path fill="#c5bfdd" d="M21.6 11.5c0 5.6-4.5 10.1-10.1 10.1-5.6.0-10.1-4.5-10.1-10.1.0-5.6 4.5-10.1 10.1-10.1C17.1 1.4 21.6 5.9 21.6 11.5z"/><path fill="#fff" d="M10.4 14H10.3v0L8.4 12.1 9.2 11.3 10.3 12.4 13.8 9 14.6 9.8z"/><path fill="#6d60aa" d="M11.5.3c-6.2.0-11.2 5-11.2 11.2.0 6.2 5 11.2 11.2 11.2 6.2.0 11.2-5 11.2-11.2C22.7 5.3 17.7.3 11.5.3zm0 20.7C6.3 21 2 16.7 2 11.5 2 6.3 6.3 2 11.5 2c5.2.0 9.5 4.3 9.5 9.5C21 16.7 16.7 21 11.5 21z"/></svg>