<svg id="Layer_1" xmlns="http://www.w3.org/2000/svg" xmlns:xlink="http://www.w3.org/1999/xlink" width="110" height="45" viewBox="0 0 110 45" enable-background="new 0 0 110 45"><path fill="#e6e6e6" d="M104 22.5C104 33.822 94.822 43 83.5 43h-57C15.178 43 6 33.822 6 22.5v0C6 11.178 15.178 2 26.5 2h57C94.822 2 104 11.178 104 22.5v0z"/><path opacity=".2" fill="#626262" d="M61 30.5c0 .828-.672 1.5-1.5 1.5h-39c-.829.0-1.5-.672-1.5-1.5v0c0-.828.671-1.5 1.5-1.5h39C60.328 29 61 29.672 61 30.5v0z"/><path opacity=".2" fill="#626262" d="M69 22.5c0 .828-.672 1.5-1.5 1.5h-47c-.829.0-1.5-.672-1.5-1.5v0c0-.829.671-1.5 1.5-1.5h47C68.328 21 69 21.671 69 22.5v0z"/><path opacity=".2" fill="#626262" d="M50 14.5c0 .829-.671 1.5-1.5 1.5h-28c-.829.0-1.5-.671-1.5-1.5v0c0-.829.671-1.5 1.5-1.5h28C49.329 13 50 13.671 50 14.5v0z"/><circle opacity=".3" fill="#626262" cx="87.5" cy="21.5" r="5.5"/></svg>